<?xml version="1.0" encoding="utf-8"?>
<svg id="Layer_1" style="enable-background:new 0 0 512 512;" x="0px" y="0px" viewBox="0 0 512 512" xmlns="http://www.w3.org/2000/svg">
  <path d="M 255.677 506.433 C 117.361 506.433 4.833 393.906 4.833 255.589 C 4.833 117.274 117.36 4.747 255.677 4.747 C 393.992 4.747 506.519 117.274 506.519 255.589 C 506.519 393.906 393.992 506.433 255.677 506.433 Z" style="fill: rgb(101, 95, 95);"/>
  <path d="M 255.677 442.861 C 152.413 442.861 68.404 358.852 68.404 255.589 C 68.404 152.327 152.413 68.317 255.677 68.317 C 358.938 68.317 442.947 152.327 442.947 255.589 C 442.947 358.852 358.938 442.861 255.677 442.861 Z" style="fill: rgb(89, 205, 247);"/>
  <path d="M 255.677 379.291 C 187.467 379.291 131.975 323.8 131.975 255.589 C 131.975 187.379 187.466 131.888 255.677 131.888 C 323.882 131.888 379.377 187.379 379.377 255.589 C 379.377 323.799 323.885 379.291 255.677 379.291 Z" style="fill: rgb(253, 203, 94);"/>
  <circle cx="263.244" cy="275.301" r="49.684" transform="matrix(1.210249, 0, 0, 1.21025, -62.908184, -77.597572)" style="fill: rgb(244, 67, 54);"/>
  <g/>
  <g/>
  <g/>
  <g/>
  <g/>
  <g/>
  <g/>
  <g/>
  <g/>
  <g/>
  <g/>
  <g/>
  <g/>
  <g/>
  <g/>
</svg>