<?xml version="1.0" encoding="iso-8859-1"?>
<!-- Generator: Adobe Illustrator 19.0.0, SVG Export Plug-In . SVG Version: 6.00 Build 0)  -->
<svg version="1.1" id="Layer_1" xmlns="http://www.w3.org/2000/svg" xmlns:xlink="http://www.w3.org/1999/xlink" x="0px" y="0px"
	 viewBox="0 0 512 512" style="enable-background:new 0 0 512 512;" xml:space="preserve">
<circle style="fill:#B5F1F4;" cx="256" cy="256" r="256"/>
<path style="fill:#84DBFF;" d="M500.243,332.891l-95.837-95.837l-6.177,7.009L268.121,113.955L256,277.261l-112.883,31.311
	l191.205,191.205C413.182,474.462,475.376,411.955,500.243,332.891z"/>
<path style="fill:#FFD15D;" d="M408.566,247.38C408.566,303.244,256,387.232,256,387.232S103.434,303.244,103.434,247.38
	c0-21.064,68.306-63.569,152.566-63.569S408.566,226.316,408.566,247.38z"/>
<path style="fill:#F9B54C;" d="M408.566,247.38c0-21.064-68.306-63.569-152.566-63.569v203.421
	C256.021,387.22,408.566,303.24,408.566,247.38z"/>
<path style="fill:#FFFFFF;" d="M256,183.811c-84.259,0-152.566,42.505-152.566,63.569c0,2.57,0.329,5.201,0.945,7.88
	c31.337,18.156,87.518,30.261,151.621,30.261s120.284-12.104,151.621-30.261c0.615-2.679,0.945-5.31,0.945-7.88
	C408.566,226.316,340.261,183.811,256,183.811z"/>
<path style="fill:#E6F3FF;" d="M408.566,247.38c0-21.064-68.306-63.569-152.566-63.569v101.71
	c64.103,0,120.284-12.104,151.621-30.261C408.238,252.581,408.566,249.951,408.566,247.38z"/>
<path style="fill:#31BAFD;" d="M256,260.094c-59.999,0-113.054-10.605-145.298-26.85c-4.713,5.204-7.268,10.071-7.268,14.136
	c0,2.57,0.329,5.201,0.945,7.88c31.337,18.156,87.518,30.261,151.621,30.261s120.284-12.104,151.621-30.261
	c0.615-2.679,0.945-5.31,0.945-7.88c0-4.067-2.555-8.933-7.268-14.136C369.054,249.489,315.999,260.094,256,260.094z"/>
<path style="fill:#2B9ED8;" d="M408.566,247.38c0-4.067-2.555-8.933-7.268-14.136c-32.244,16.246-85.299,26.85-145.298,26.85v25.428
	c64.103,0,120.284-12.104,151.621-30.261C408.238,252.581,408.566,249.951,408.566,247.38z"/>
<path style="fill:#804000;" d="M256,209.239L256,209.239c-8.085,0-14.639-6.554-14.639-14.639v-72.432
	c0-8.085,6.554-14.639,14.639-14.639l0,0c8.085,0,14.639,6.554,14.639,14.639v72.43C270.641,202.685,264.087,209.239,256,209.239z"
	/>
<path style="fill:#6B3300;" d="M256.002,107.529v101.71c8.085,0,14.639-6.554,14.639-14.639v-72.432
	C270.641,114.083,264.087,107.529,256.002,107.529z"/>
<g>
</g>
<g>
</g>
<g>
</g>
<g>
</g>
<g>
</g>
<g>
</g>
<g>
</g>
<g>
</g>
<g>
</g>
<g>
</g>
<g>
</g>
<g>
</g>
<g>
</g>
<g>
</g>
<g>
</g>
</svg>
